# xmcd
#
# Track frame offsets: 
#        150
#        18577
#        38925
#
# Disc length: 752 seconds
#
# Revision: 3
# Processed by: cddbd v1.5.2PL0 Copyright (c) Steve Scherf et al.
# Submitted via: ExactAudioCopy v1.0b3
#
DISCID=1e02ee03
DTITLE=蘇打綠 - 陪我歌唱
DYEAR=2008
DGENRE=JPop
TTITLE0=呢喃
TTITLE1=陪我歌唱
TTITLE2=愛人動物
EXTD=YEAR: 2004
EXTT0=
EXTT1=
EXTT2=
PLAYORDER=
